<svg width="50" height="50" viewBox="0 0 50 50" fill="none" xmlns="http://www.w3.org/2000/svg">
<circle cx="25" cy="25" r="25" fill="white" fill-opacity="0.74"/>
<path d="M37.1433 15.7281C33.9928 13.0971 29.3067 13.5624 26.4095 16.4981L25.0005 17.9259L23.5915 16.4981C20.7101 13.5784 16.0081 13.0971 12.8576 15.7281C9.248 18.744 9.05802 24.1823 12.2877 27.455L24.4305 39.7594C24.7472 40.0802 25.2379 40.0802 25.5546 39.7594L37.6974 27.455C40.9429 24.1823 40.753 18.7601 37.1433 15.7281Z" fill="#FF6464"/>
<path fill-rule="evenodd" clip-rule="evenodd" d="M25.6484 39.6643L37.6975 27.455C40.943 24.1823 40.753 18.7601 37.1434 15.7281C33.9929 13.0971 29.3067 13.5624 26.4095 16.4981L25.6484 17.2693V39.6643Z" fill="#FA3737"/>
</svg>
