<svg width="30" height="30" viewBox="0 0 30 30" fill="none" xmlns="http://www.w3.org/2000/svg">
<path fill-rule="evenodd" clip-rule="evenodd" d="M29 15C29 22.732 22.732 29 15 29C7.26801 29 1 22.732 1 15C1 7.26801 7.26801 1 15 1C19.0187 1 22.6418 2.69321 25.1951 5.40513L13.5483 19.8471L9.31373 13.9188L7.68627 15.0812L12.6863 22.0812L13.4517 23.1529L14.2784 22.1278L26.4849 6.99175C28.0701 9.26098 29 12.0219 29 15ZM30 15C30 23.2843 23.2843 30 15 30C6.71573 30 0 23.2843 0 15C0 6.71573 6.71573 0 15 0C23.2843 0 30 6.71573 30 15Z" fill="#B5B5B5"/>
</svg>
