<svg width="50" height="50" viewBox="0 0 50 50" fill="none" xmlns="http://www.w3.org/2000/svg">
<circle cx="25" cy="25" r="24.5" fill="white" fill-opacity="0.74" stroke="#D9D9D9"/>
<path d="M37.1433 15.7281C33.9928 13.0971 29.3067 13.5624 26.4095 16.4981L25.0005 17.9259L23.5915 16.4981C20.7101 13.5784 16.0081 13.0971 12.8576 15.7281C9.248 18.744 9.05802 24.1823 12.2877 27.455L24.4305 39.7594C24.7472 40.0802 25.2379 40.0802 25.5546 39.7594L37.6974 27.455C40.9429 24.1823 40.753 18.7601 37.1433 15.7281Z" fill="black" fill-opacity="0.2"/>
<path d="M37.1446 15.7518C33.9939 13.1264 29.3076 13.5906 26.4102 16.5203L25.0012 17.945L23.5921 16.5203C20.7106 13.6066 16.0084 13.1264 12.8577 15.7518C9.24796 18.7615 9.05797 24.1885 12.2878 27.4543L24.4312 39.7332C24.7478 40.0533 25.2386 40.0533 25.5553 39.7332L37.6987 27.4543C40.9443 24.1885 40.7544 18.7775 37.1446 15.7518Z" fill="#FF6464"/>
<path fill-rule="evenodd" clip-rule="evenodd" d="M25.6523 39.6363L37.7 27.4543C40.9456 24.1885 40.7556 18.7775 37.1459 15.7518C33.9952 13.1264 29.3088 13.5906 26.4115 16.5203L25.6523 17.2879V39.6363Z" fill="#FA3737"/>
</svg>
